<?xml version="1.0" encoding="UTF-8"?>
<svg id="Layer_2" data-name="Layer 2" xmlns="http://www.w3.org/2000/svg" viewBox="0 0 415.88 487.83">
  <defs>
    <style>
      .cls-1 {
        fill: #fff;
      }

      .cls-2 {
        fill: #d5ae45;
      }

      .cls-3 {
        fill: #299747;
      }

      .cls-4 {
        fill: none;
        stroke: #fbb040;
        stroke-dasharray: 2;
        stroke-linecap: round;
        stroke-linejoin: round;
      }

      .cls-5 {
        fill: #23295e;
      }
    </style>
  </defs>
  <g id="Layer_1-2" data-name="Layer 1">
    <g>
      <path class="cls-1" d="M328.74,55.18c-63.75-77.27-192.11-72.88-248.96,9.97-7.64,11.13-13.36,23.31-17.93,36.01-17.66,5.35-35.17,11.34-52.22,18.37-.96,8.22-1,16.47-1.17,24.74-.76,38.4,4.5,79.34,15.19,116.19,7.83,26.99,19.26,52.87,33.18,77.2-9.21-1.89-18.4-4.1-27.5-6.47-9.82-2.56-19.51-5.62-29.34-8.06l18.25,41.66c-5.56,10.58-11.79,20.8-17.73,31.16l-.13.68,38.72,10.33.15,17.7c8.88,1.82,17.84,3.83,26.79,5.46,24.7,4.5,49.64,7.51,74.6,10.01,15.87,13.79,32.66,26.6,50.49,37.82,5.55,3.49,11.24,6.88,17.06,9.88,6.35-3.39,12.56-7.13,18.64-11,17.46-11.1,33.83-23.75,49.46-37.26,22.55-2.56,45.13-5.44,67.49-9.44l33.22-6.84.03-16.63,38.75-10.04c.29-.29-.04-.47-.13-.68-.84-1.94-2.54-4.28-3.62-6.18-.32-.57-.38-.84-.5-1.05-4.48-7.84-9.1-15.63-13.64-23.41-.04-.69.33-1.25.56-1.85,4.15-10.85,10.01-21.94,14.59-32.74,1.05-2.47,2.07-5.01,2.86-7.58-18.58,5.23-37.16,10.49-56.05,14.54-.28-1.04.74-1.76,1.03-2.33,4.33-8.67,9.07-17.11,13.17-25.9,26.76-57.39,36.56-121.85,32.86-185-.07-1.2.24-3.49-.05-4.44-.2-.64-3.35-1.79-4.19-2.16-5.41-2.32-11.36-4.35-16.92-6.34-10.44-3.74-21-7.14-31.6-10.44-5.92-16.78-14.05-32.12-25.39-45.86Z"/>
      <path class="cls-2" d="M328.74,55.18c11.34,13.74,19.47,29.08,25.39,45.86,10.59,3.29,21.16,6.7,31.6,10.44,5.57,2,11.51,4.02,16.92,6.34.84.36,3.99,1.51,4.19,2.16.29.95-.02,3.25.05,4.44,3.7,63.15-6.1,127.61-32.86,185-4.1,8.79-8.84,17.23-13.17,25.9-.29.57-1.31,1.29-1.03,2.33,18.89-4.05,37.47-9.31,56.05-14.54-.79,2.57-1.81,5.11-2.86,7.58-4.58,10.8-10.44,21.89-14.59,32.74-.23.61-.6,1.16-.56,1.85,4.55,7.79,9.17,15.57,13.64,23.41.12.21.17.49.5,1.05,1.08,1.9,2.78,4.24,3.62,6.18.09.21.42.39.13.68l-38.75,10.04-.03,16.63-33.22,6.84c-22.36,4-44.95,6.89-67.49,9.44-15.63,13.51-32,26.15-49.46,37.26-6.08,3.86-12.29,7.61-18.64,11-5.82-3-11.51-6.39-17.06-9.88-17.82-11.22-34.61-24.03-50.49-37.82-24.96-2.5-49.89-5.51-74.6-10.01-8.95-1.63-17.92-3.65-26.79-5.46l-.15-17.7L.38,396.62l.13-.68c5.95-10.36,12.18-20.58,17.73-31.16L0,323.12c9.83,2.44,19.53,5.5,29.34,8.06,9.1,2.37,18.29,4.58,27.5,6.47-13.93-24.32-25.35-50.21-33.18-77.2-10.69-36.85-15.95-77.79-15.19-116.19.16-8.27.21-16.52,1.17-24.74,17.05-7.03,34.56-13.02,52.22-18.37,4.57-12.7,10.29-24.88,17.93-36.01,56.85-82.85,185.21-87.24,248.96-9.97ZM309.07,366.21c8.89-1.21,17.89-2.18,26.68-4.12,15.81-21.94,29.05-46.12,39.27-71.24.4-.97.36-2.18.54-2.62.29-.72,1.24-1.78,1.65-2.85,3.91-10.15,7.61-21.36,10.35-31.47,10.23-37.61,14.63-77.27,13.49-116.25-.11-3.69.04-7.73-.24-11.39-.21-2.71-.6-2.46-2.92-3.42-6.86-2.84-14.49-5.38-21.54-7.81-35.72-12.32-72.91-21.79-110.34-28.47-4.75-.85-9.54-1.77-14.33-2.2l-.39-6.88c23.76,3.97,47.41,8.66,70.72,14.67,8.04,2.07,15.97,4.6,24.05,6.48-8.32-24.05-24.55-45.54-44.56-61.06C230.38-17.56,117.19,2.19,76.2,84.03c-2.37,4.73-4.54,9.52-6.4,14.49l39.52-9.92c.35.19.21.32-.03.56-2.51,2.43-4.91,4.9-7.14,7.61-27.71,7.14-55.53,14.89-82.12,25.48-.78.31-4.22,1.48-4.39,1.96-.39,5.64-.44,11.24-.56,16.89-.82,36.77,3.31,74.14,12.7,109.69,10.64,40.28,28.96,77.98,52.73,111.98,8.89,2.06,18.05,3.03,27.09,4.24,11.68,1.56,22.73,2.93,34.77,3.96,55.97,4.81,111.16,2.81,166.69-4.75ZM62.13,345.32c-17.17-3.29-34.01-7.95-50.89-12.43-.16.18-.41.2-.27.53.17.39.91,1.22,1.24,1.94,4.6,9.95,8.74,20.14,13.14,30.19l-.39,1.16-14.7,25.23-.09.73,29.23,7.65-.21-43.44.49-.57,21.68-10.05.78-.93ZM377.01,356.3v43.76l29.35-7.27c-3.33-5.61-6.47-11.32-9.71-16.98-.31-.55-.65-1.08-.98-1.67-1.63-2.85-3.6-5.54-4.88-8.57l14.25-32.66-50.76,12.43,22.74,10.97ZM370.67,361.72c-12.97,2.76-25.99,5.38-39.08,7.58-72.6,12.2-146.49,13.98-219.59,4.81-22.34-2.8-44.5-6.84-66.53-11.34v56.45c0,.23.66.38.88.44,3.94,1.13,9.45,1.98,13.61,2.78,91.4,17.68,186.57,18.4,278.24,2.11,10.87-1.93,21.67-4.24,32.47-6.53v-56.31ZM231.07,442.62c-.28-.44-1-.26-1.45-.27-10.52-.11-20.94.78-31.48.55-4.39-.1-9.04-.14-13.34-.28-10.4-.34-20.89-1.21-31.32-1.86-.51-.03-1.28-.08-1.73.14,17.37,15,36.4,28.2,56.4,39.47,14.73-8.45,28.97-17.79,42.45-28.12,4.81-3.69,9.59-7.52,14.04-11.61-1.06-.19-2.24-.19-3.31-.14-5.97.26-11.99,1-17.97,1.33-2.31.13-10.94-.11-12.29.8Z"/>
      <path class="cls-5" d="M107.6,367c-9.04-1.21-18.2-2.18-27.09-4.24-23.77-34-42.09-71.7-52.73-111.98-9.39-35.55-13.52-72.92-12.7-109.69.13-5.65.17-11.25.56-16.89.16-.47,3.61-1.65,4.39-1.96,26.6-10.59,54.41-18.35,82.12-25.48,2.23-2.71,4.63-5.18,7.14-7.61.24-.23.39-.37.03-.56l-39.52,9.92c1.85-4.96,4.03-9.76,6.4-14.49C117.19,2.19,230.38-17.56,301.52,37.59c20.01,15.52,36.24,37.01,44.56,61.06-8.09-1.88-16.02-4.41-24.05-6.48-23.32-6.01-46.96-10.7-70.72-14.67l.39,6.88c4.79.43,9.58,1.35,14.33,2.2,37.42,6.68,74.62,16.15,110.34,28.47,7.05,2.43,14.68,4.97,21.54,7.81,2.32.96,2.71.71,2.92,3.42.29,3.66.14,7.7.24,11.39,1.13,38.98-3.27,78.64-13.49,116.25-2.75,10.1-6.44,21.32-10.35,31.47-.41,1.07-1.36,2.14-1.65,2.85-.18.44-.15,1.65-.54,2.62-10.22,25.12-23.46,49.3-39.27,71.24-8.79,1.94-17.79,2.91-26.68,4.12,10.36-13.43,19.65-27.69,28.01-42.45.22-.96-1.11.23-1.36.43-6.25,5.11-12.06,11.04-18.35,16.21-.8.66-.81,1.42-1.95,1.48-16.69-8.35-35.26-13.15-53.62-16.44-.49-5.33-5.07-5.01-8.33-7.13-.6-.39-1.78-1.24-1.79-1.94l9.15-21.82c4.04,2.26,8.4,3.57,12.99,4.19,1.71.23,3.81.48,5.52.56,10.4.53,23.71.52,34.11.01,18.53-.91,28.44-9.98,29.21-28.68.41-10.02,1.13-30.94-2.6-39.72-8.52-20.07-33.04-13-49.59-14.92-4.07-.47-5.2-2.96-5.46-6.7-.38-5.56-.53-15.72.01-21.16.34-3.46,2.19-5.6,5.68-5.95,2.46-.24,10.06-.28,12.12.56,2.67,1.1,3.37,3.48,3.6,6.18.33,3.92-.1,8.36-.26,12.29h35.96c-.47-9.07,1.3-19.17-1.92-27.83-4.29-11.57-15.57-15.41-27.04-16.06-10.21-.58-23.89-.56-34.11-.01-2.94.16-6.23.71-9.11,1.33.09-.46.69-3.04.82-3.15.1-.08,1.83,0,2.55-.23,3.19-1.04,4.26-6.74,1.79-9.05-.63-.59-2.11-.95-2.37-1.33s-.38-1.51-.72-2.19c-1.39-2.78-5.32-3.59-7.98-4.71-2.2-.92-3.51-2.51-6.31-1.54-.24.08-.2.54-.32.51-.91-.17-3.27-1.51-4.73-1.89-2.99-.77-6.43-1.45-9.14.45-.76.53-2.25,2.7-2.74,2.7-10.92-2.71-21.77-5.77-32.43-9.34-2.8-.94-11.04-4.6-13.34-4.33-3.43.4-4.42,5.3-2.39,7.63,1.44,1.65,7.93,5.9,10.07,7.11,10.4,5.89,24.56,6.03,36,9.08-.17,1.05,1.15,2.76,1.11,3.49-.01.21-1.12,3.68-1.28,4.04-.6,1.4-3.95,5.66-5.08,7.08-1.52,1.92-3.16,3.84-5.02,5.43v-11.1h-15.73c-.17,0-1.17-1.91-2.5-2.26-.94-.25-3.31.06-3.67-.17-.07-.05-.4-1.05-.62-1.37-1.79-2.59-3.97-5.17-7.09-6.13-8.58-2.63-18.25,2.7-19.03,11.9-.48,5.67,1.31,10.8,5.28,14.8-2.5,1.5-3.14,3.44-2.52,6.22.13.59.63,1.2.66,1.72.06.88-1.19,4.01-1.31,5.54-1.01,12.41,6.62,22.58,10.31,33.84-1.13,16.98,2.65,36.16-2.84,52.42-.38,1.14-1.28,3.7-2.21,4.4-.77.58-3.69,1.55-4.92,2.22-6.81,3.72-9.87,8.64-15.28,13.54-4.53,4.1-9.35,6.14-14.59,8.93-2.48,1.32-3.84,4.31-3.81,7.06.01.94.63,2.74.5,3.37-.07.34-.83,1.19-1.08,1.83-1.47,3.77-1.06,7.93,1.66,11.04-16.8,3.33-33.37,8.13-48.91,15.34-.06,0-.28.24-.53.12s-1.22-1.01-1.59-1.3c-6.32-5.04-12.27-11.09-18.55-16.29-.27-.23-1.24-1.78-1.28-.63-.03.86.39.56.62.97,6.81,12.23,15.51,25.44,23.71,36.82,1.4,1.94,3.08,3.75,4.49,5.68ZM222.08,21.98h-10.44l-3.31-10.31-3.83,10.31h-10.44l8.41,6.51-2.99,10.14,8.68-6.3,8.64,6.3c.45-.61-3.29-8.98-2.87-10.39.24-.8,7.24-5.03,8.16-6.27ZM176.34,28.06l-8.87,2.05-5.14-8.13-1.09,9.48c-.25.38-7.71,1.71-8.85,2.12-1.31.47,1.07.86,1.62,1.08,2.25.92,4.5,1.91,6.68,2.96-.21,1.77-.09,3.59-.21,5.36-.04.65-.65,3.69-.53,3.83.23.27,1.05-.72,1.21-.89.78-.81,4.68-5.81,5.3-5.93l8.56,3.38-4.49-8.07c.02-.77,4.6-5.4,5.42-6.47.2-.26.52-.33.39-.79ZM254.07,21.98c-.62-.13-.42.08-.59.34-.68,1.07-3.97,7.36-4.61,7.56-2.93-.36-5.76-1.22-8.62-1.88-.24-.06-.61-.5-.46.19.33,1.44,5.74,5.9,5.8,7.13.06,1.31-3.92,6.31-4.47,7.94l8.8-3.28,6.26,7.11c-.2-3.16-.8-6.35-.4-9.52.4-.8,6.54-2.75,7.72-3.38.25-.13.58-.26.61-.58l-9.19-2.18c-.49-3.09-.72-6.31-.85-9.46ZM126.64,42.6v8.46c-.92.49-7.55,2.13-7.67,2.51-.15.5.23.4.53.51,2.31.89,4.98,1.15,7.14,2.39v8.33l4.23-5.94.72-.63,7.74,2.07c-.49-1.24-4.53-5.8-4.44-6.7l4.44-6.65c-1.6.07-6.56,2.62-7.76,2.21-.84-.29-3.88-5.73-4.94-6.58ZM289.5,50.67c-.49-1.72.37-5.8,0-7.8-1.82,2.02-3.36,4.28-4.79,6.59l-7.9-2.62,4.48,6.74c-1.26,2.14-2.68,4.14-3.97,6.27-.17.27-.46.12-.51.34l7.9-2.22,4.8,6.58v-8.06c2.47-1.15,5.27-1.83,7.93-2.51-.04-.43-.41-.39-.68-.5-1.15-.49-7.04-2.09-7.25-2.8ZM223.41,49.74c-32.2-14.24-64.36,19.56-48.12,50.23.32.6.52.86.79,1.32.36.6.63,1.22,1.06,1.85.5.74.95,1.08,1.32,1.59,1.5,2.01,2.27,3.16,4.23,5.02.62.6.53,1,1.59,1.32.52,1.06,1.49,1.34,2.38,1.85.4.23.35.66,1.32.79-.06.6,1.48,1.28,2.12,1.59.98.48,1.09.75,2.38.79-.17.75.37.43.53.53,1.11.67,1.51,1,2.91,1.06.38.66,1.38.79,2.06.98,30.17,8.72,55.79-21.13,43.68-50.16-.35-.83-.85-2.57-1.32-3.17-.16-.2-.26-.29-.53-.26-.15-1.38-.56-1.29-1.06-2.12-1.35-2.26-2.45-3.41-4.23-5.29-.57-.6-.98-1.02-1.59-1.59-1.67-1.56-2.62-2.17-4.49-3.44-.59-.4-.94-.66-1.59-1.06-.51-.31-.92-.7-1.59-1.06-.81-.44-1.17-.49-1.85-.79ZM166.5,70.83c1.57-5.07,3.88-9.8,6.81-14.21-16.86,6.39-32.93,14.96-47.06,26.18-19.82,15.74-34.88,37.53-42.1,61.8-.32,1.09-2.25,6.11.12,4.74,12.72-37.88,45.29-65.34,82.23-78.51ZM95.44,149.15h9.52c-.01-.34.05-.67.21-.97,11.4-21.46,30.63-36.88,52.76-46.4,3.06-1.32,6.22-2.42,9.32-3.64-.34-1.79-1.21-3.7-1.61-5.56-.98-4.46-.85-7.92-.76-12.42,0-.32-.03-.34-.29-.54-25.47,10.61-48.23,28.68-61.78,52.96-.94,1.68-8.12,15.85-7.36,16.57ZM170.75,105.3c-18.22,5.9-35.5,17.61-46.6,33.3-1.64,2.31-3.63,5.26-4.96,7.73-.55,1.02-2.42,4.04-.09,2.82,12.81-19.5,35.23-31.82,58.03-35.43.11-.4-.11-.44-.26-.66-.73-1.06-2.48-2.51-3.43-3.71-1-1.26-1.93-2.64-2.69-4.06ZM73.76,157.61c-.2.2-.32.29-.28.63.04,21.82,0,43.65.01,65.46,0,.62,0,1.24,0,1.85,0,2.64,0,5.29,0,7.93.02,21.99.39,43.78,0,65.83h66.77c17.18-.8,29.85-8.35,30.8-26.82l-.02-88.05c-1.04-18.08-12.73-26.26-29.99-27.11-21.81-1.07-44.49.84-66.4,0-.43.03-.55-.07-.9.28Z"/>
      <path class="cls-5" d="M370.67,361.72v56.31c-10.8,2.28-21.6,4.59-32.47,6.53-91.66,16.29-186.83,15.57-278.24-2.11-4.16-.8-9.67-1.65-13.61-2.78-.22-.06-.88-.21-.88-.44v-56.45c22.03,4.5,44.19,8.53,66.53,11.34,73.09,9.17,146.99,7.4,219.59-4.81,13.09-2.2,26.11-4.83,39.08-7.58ZM349.25,400.45v9.12l5.28-.81c.7-3.61-.53-7.27.35-10.89l5.48-20.69c.01-.41-5.04.66-5.42,1.19l-2.78,14.01-.59-.34-3.24-12.1c-.49-.64-5.25.18-5.41.7l6.33,19.8ZM56.58,378.11v30.54c.79.55,2.1.65,3.12.85,2.02.4,6.79,1.44,8.58,1.33,2.88-.17,3.48-2.66,3.65-5.08.28-4.1.55-18.2-.4-21.56-.69-2.44-2.1-3.35-4.43-4.03-3.33-.98-7.11-1.33-10.52-2.04ZM325.46,413.8v-19.83l3.41,12.54c.27.39,4.08-.1,4.33-.97l3.1-13.16.27,19.56,4.59-.78.19-.4-.28-30.02-6.02,1.12-4.03,17.39-4.5-16.12-5.96,1.04.15,30.42,4.76-.79ZM80.64,413.01v-30.27c-1.48-.7-3.58-.84-5.29-.93v30.4l5.29.79ZM98.62,389.74c-.82-4.86-4.39-5.53-8.86-5.81-2.87-.18-5.32.18-5.68,3.57-.22,2.09-.23,8.62.4,10.44,1.32,3.81,4.36,2.98,7.34,3.77,1.81.48,1.66,5.09,1.51,6.68-.1,1.08-.16,1.71-1.37,1.66-3.49-.15-1.95-2.44-2.6-4.95l-5.28-.8v5.68c0,.62,1.53,2.98,2.13,3.42.98.72,3.43,1.19,4.69,1.39,5.59.88,7.73.67,7.89-5.51.06-2.48.12-7.7-1.17-9.66-1.67-2.54-7.98-2.59-7.98-3.39v-7.01c2.36-.04,3.44-.41,3.68,2.28.06.71-.32,2.15.01,2.36,1.18-.2,4.48.93,5.3.65.39-.13.24-.35.28-.65.17-1.37-.06-2.81-.28-4.11ZM317.79,389.48v-4.36c0-.1.49-.28-.14-.66l-13.08,1.85v30.4l13.75-1.85v-5.02c-2.71.64-5.44,1-8.2,1.32v-8.2l6.61-1.06v-4.76l-6.61.79v-7.4l7.67-1.06ZM123.73,398.99v-6.48c0-.31-.96-2.33-1.25-2.71-1.34-1.74-4.48-2.25-6.58-2.41-2.91-.22-5.72-.27-6.72,2.99.02,7.02-.88,15.27-.26,22.23.41,4.64,4.7,5.46,8.61,5.67,2.88.16,5.58-.29,6.15-3.63.14-.81.22-5.67.03-6.25-.28-.83-4.54-.58-5.52-.96v5.42c0,.72-2.44.81-2.99.67-.07-.02-.98-1.12-.98-1.19v-19.56c0-1.06,3.41-.58,3.84.13.46.76-.11,5.33.13,5.56l5.55.53ZM286.09,418.8c.56.06,1.13.05,1.69.02,2.33-.14,7.22-.6,9.34-1.24,3.59-1.07,4.09-3.74,4.29-7.08.29-4.83.35-12.14-.01-16.93-.42-5.41-2.09-6.25-7.26-5.95-2.7.16-5.59.95-8.33,1.06l.28,30.11ZM126.64,388.95v30.4c1.86-.05,3.73.2,5.55.53v-11.63c.52-.02,1.07-.12,1.28.44l3.81,11.4c.26.23,5.54.78,5.75.59l-4.25-12.27c1.51-.72,2.4-1.3,2.86-3,.56-2.07.62-10.27-.06-12.22-.28-.8-1.04-1.75-1.71-2.26-1.66-1.25-8.14-1.83-10.45-1.97-.92-.06-1.85.03-2.77,0ZM283.69,419.35l-5.95-29.62-.28-.23-6.74.61-5.27,30.82,5.16-.51c.51-1.6.42-4.19.97-5.66.14-.37.25-.38.61-.45.53-.1,4.9-.36,5.12-.23l1.12,5.49,5.26-.24ZM150.7,390.8c-1.26.42-4.21-.48-5.11-.28s-.18,5.18-.17,6.22c.1,8.07-.09,16.14,0,24.21l5.29.26v-30.4ZM254.34,397.14c.7-1.77,3.97-1.25,3.97-.13v4.89c.19.07.32-.26.4-.26h4.49c.09,0,.63-.29.67-.45.18-.74.06-4.28-.04-5.2-.25-2.26-1.45-4.45-3.86-4.86-1.38-.24-6.38.16-7.74.59-2.05.65-3.21,2.42-3.43,4.51-.67,6.65.5,14.38,0,21.15.33,2.06,1.42,3.92,3.63,4.3,1.61.27,7.18-.12,8.62-.77,1.36-.62,2.82-2.86,2.82-4.32v-6.21c-.81.06-5.3.22-5.52.57-.33,2.68,1.27,6.88-3.07,6.03-1.36-.27-.9-2.05-.93-3.16-.15-5.54.11-11.11,0-16.66ZM169.21,418.16c.26-1.89-.19-4.27,0-6.21-.26.09-.57-.26-.66-.26h-4.89v4.89c0,1.06-2.5.91-3.25.6-.67-.28-.68-1.03-.73-1.65-.52-5.76.36-12.36.08-18.2.02-1.69,3.9-.84,3.9-.05v5.16l5.55.26v-6.74c0-.38-1.31-2.66-1.67-2.96-1.79-1.51-7.52-1.71-9.81-1.38-1.63.23-2.89,1.82-3.26,3.35-.87,3.61-.66,18.94,0,22.87.38,2.27,2.24,3.7,4.42,4.04,1.31.2,4.4.45,5.69.38,2.55-.14,4.28-1.51,4.63-4.1ZM240.83,392.15c-2.36.29-4.73.26-7.11.23l-5.55,30.67,5.54-.28.81-5.8,6.08-.26.8,5.81c1.49-.35,3.53-.03,4.89-.26.29-.05.52-.1.63-.42l-6.08-29.69ZM177.67,406.4v-13.62s-.37-.4-.4-.4h-4.89v30.14h4.63c.08,0,.38.36.66.26v-15.07l5.21,14.73c.05.25.58.6.74.6h5.16l-.06-.86-5.21-14.62c1.39-5.02,3.92-9.64,5.27-14.65h-4.89c-.1,0-.38-.4-.66-.16-.49.31-3.55,9.31-4.11,10.73-.36.91-.79,2.22-1.45,2.91ZM196.44,397.94h7.53s.4-.37.4-.4v-4.23s-.37-.4-.4-.4h-12.82v30.14l13.48.26v-5.02h-8.46c.04-2.73.64-5.49,0-8.2h6.74c.68,0,.14-1.39.13-1.72-.03-1.01.02-2.03,0-3.04h-6.61v-7.4ZM220.5,392.91h-14.41s-.4.37-.4.4v4.63h4.76v25.38h5.29v-25.25c0-.95,4.76.21,4.76-.53v-4.63Z"/>
      <path class="cls-3" d="M107.6,367c-1.41-1.94-3.09-3.74-4.49-5.68-8.2-11.38-16.9-24.59-23.71-36.82-.23-.42-.65-.11-.62-.97.04-1.15,1,.4,1.28.63,6.28,5.2,12.23,11.25,18.55,16.29.37.29,1.33,1.17,1.59,1.3s.47-.13.53-.12c.15.02.26.29.83.22.84-.1,2.93-.53,3.72-.77,2.04-.63,5.28-1.27,7.81-1.76,60.54-11.67,129.43-11.98,189.96,0,3.48.69,7.56,2.11,10.99,2.51.48.06.89.1,1.37.07,1.14-.06,1.15-.82,1.95-1.48,6.29-5.17,12.11-11.1,18.35-16.21.25-.2,1.58-1.39,1.36-.43-8.36,14.76-17.66,29.02-28.01,42.45-55.53,7.57-110.72,9.57-166.69,4.75-12.04-1.04-23.09-2.4-34.77-3.96ZM204.9,349.55h-10.58l8.17,6.52-2.88,9.61c.41.46,7.48-5.53,8.59-5.53s6.51,5.1,8.19,5.54l-2.73-9.6c.15-.64,5.41-3.96,6.36-4.69l1.79-1.57-10.55-.29-2.94-9.49-.59.33-2.84,9.19ZM173.7,351.93h-7.14c1.56,1.8,3.8,2.84,5.56,4.41l-1.86,6.7,5.91-3.65,5.72,3.91c.39-.49-2.16-5.77-1.81-6.95.23-.77,4.89-3.35,5.51-4.42h-7.01c-1.1-1.84-1.4-4.25-2.18-6.29-.11-.28.08-.76-.46-.58-.34.11-2.08,6-2.25,6.88ZM237.29,351.93c-1.51.43-4.99-.32-6.74,0,.33,1.03,5.5,4.06,5.56,4.42-.33,2.36-1.69,4.58-1.72,6.95l5.77-3.93c.72.19,5.61,4.31,5.99,3.93-.5-2.39-1.3-4.69-2.13-6.98l5.83-4.38h-6.74s-.56-.27-.6-.33c-.61-1.82-1.07-4.2-1.89-5.9-.15-.31-.23-.7-.67-.65-.64,1.08-1.69,6.6-2.65,6.88Z"/>
      <path class="cls-5" d="M231.07,442.62c1.35-.91,9.98-.67,12.29-.8,5.98-.33,12-1.07,17.97-1.33,1.08-.05,2.26-.05,3.31.14-4.45,4.09-9.23,7.92-14.04,11.61-13.48,10.33-27.72,19.67-42.45,28.12-20-11.27-39.03-24.47-56.4-39.47.45-.22,1.22-.17,1.73-.14,10.42.65,20.92,1.52,31.32,1.86l23.4,15.32c7.28-4.21,14.24-8.93,21.1-13.79.59-.42,1.34-1.25,1.77-1.54Z"/>
      <path class="cls-5" d="M62.13,345.32l-.78.93-21.68,10.05-.49.57.21,43.44-29.23-7.65.09-.73,14.7-25.23.39-1.16c-4.39-10.04-8.54-20.24-13.14-30.19-.33-.71-1.07-1.55-1.24-1.94-.14-.33.12-.35.27-.53,16.87,4.48,33.72,9.13,50.89,12.43Z"/>
      <path class="cls-5" d="M377.01,356.3l-22.74-10.97,50.76-12.43-14.25,32.66c1.28,3.03,3.25,5.72,4.88,8.57.34.59.67,1.12.98,1.67,3.24,5.66,6.38,11.37,9.71,16.98l-29.35,7.27v-43.76Z"/>
      <path class="cls-3" d="M231.07,442.62c-.43.29-1.17,1.12-1.77,1.54-6.85,4.86-13.82,9.57-21.1,13.79l-23.4-15.32c4.3.14,8.95.18,13.34.28,10.53.23,20.96-.66,31.48-.55.45,0,1.18-.17,1.45.27Z"/>
      <path class="cls-2" d="M100.73,341.62c15.54-7.2,32.11-12,48.91-15.34-2.72-3.11-3.13-7.28-1.66-11.04.25-.64,1.01-1.49,1.08-1.83.13-.63-.49-2.43-.5-3.37-.03-2.74,1.33-5.74,3.81-7.06,5.24-2.79,10.06-4.83,14.59-8.93,5.42-4.9,8.47-9.82,15.28-13.54,1.22-.67,4.15-1.64,4.92-2.22.92-.7,1.82-3.27,2.21-4.4,5.49-16.26,1.71-35.44,2.84-52.42-3.69-11.26-11.32-21.43-10.31-33.84.12-1.53,1.37-4.66,1.31-5.54-.03-.52-.53-1.13-.66-1.72-.62-2.79.02-4.72,2.52-6.22-3.97-4.01-5.76-9.14-5.28-14.8.78-9.2,10.45-14.53,19.03-11.9,3.12.96,5.3,3.54,7.09,6.13.22.32.54,1.32.62,1.37.36.22,2.73-.08,3.67.17,1.34.35,2.33,2.26,2.5,2.26h15.73v11.1c1.86-1.59,3.49-3.51,5.02-5.43,1.13-1.42,4.48-5.68,5.08-7.08.15-.36,1.27-3.83,1.28-4.04.04-.73-1.28-2.45-1.11-3.49-11.44-3.05-25.6-3.19-36-9.08-2.14-1.21-8.63-5.46-10.07-7.11-2.03-2.33-1.04-7.23,2.39-7.63,2.29-.27,10.53,3.39,13.34,4.33,10.66,3.57,21.51,6.63,32.43,9.34.49,0,1.98-2.17,2.74-2.7,2.71-1.9,6.15-1.21,9.14-.45,1.46.37,3.82,1.72,4.73,1.89.13.02.09-.43.32-.51,2.81-.98,4.11.62,6.31,1.54,2.66,1.11,6.6,1.93,7.98,4.71.34.68.47,1.82.72,2.19s1.74.74,2.37,1.33c2.47,2.31,1.4,8.01-1.79,9.05-.72.23-2.45.15-2.55.23-.12.11-.73,2.69-.82,3.15,2.87-.62,6.16-1.18,9.11-1.33,10.22-.54,23.91-.56,34.11.01,11.47.65,22.74,4.49,27.04,16.06,3.21,8.66,1.45,18.75,1.92,27.83h-35.96c.16-3.93.59-8.37.26-12.29-.23-2.7-.93-5.09-3.6-6.18-2.06-.84-9.66-.8-12.12-.56-3.49.35-5.34,2.49-5.68,5.95-.54,5.44-.4,15.6-.01,21.16.26,3.75,1.39,6.23,5.46,6.7,16.55,1.92,41.07-5.15,49.59,14.92,3.73,8.78,3.02,29.71,2.6,39.72-.77,18.7-10.68,27.77-29.21,28.68-10.4.51-23.72.52-34.11-.01-1.7-.09-3.81-.33-5.52-.56-4.59-.63-8.95-1.94-12.99-4.19l-9.15,21.82c0,.69,1.19,1.54,1.79,1.94,3.26,2.13,7.85,1.81,8.33,7.13,18.37,3.29,36.93,8.08,53.62,16.44-.48.02-.9-.02-1.37-.07-3.42-.4-7.5-1.82-10.99-2.51-60.52-11.97-129.42-11.66-189.96,0-2.53.49-5.77,1.13-7.81,1.76-.79.24-2.88.67-3.72.77-.58.07-.68-.2-.83-.22ZM243.23,169.51c-.99,2.57-1.72,5.21-2.98,7.72-.31.62-2.55,3.86-2.3,4.17,3.39-.73,6.98-.72,10.22-2.07,2.68-1.11,5.02-3.61,6.97-5.72,3.57-3.88,6.12-8.39,9.2-12.48,1.93-2.56,3.21-6.48,4.27-9.5,2.1.07,4.54,1.7,4.53-1.56-.01-2.66-2.78-1.42-3.34-2.23-.39-.56.03-2.99-1.18-4.1l-8.87-4.11c-1.93-.2-1.78,1.77-3.01,2.64-.11-2.25-2.68-3.2-4.56-3.78-4.15-1.27-7.72-1.44-8.95,3.49-13.4-2.59-26.62-6.61-39.51-11.08-1.33-.46-7.67-3.14-8.43-2.93-.66.18-.31,1.82.24,2.4,1.19,1.25,4.66,3.19,6.28,4.24,4.82,3.12,7.74,4.28,13.42,5.68,8.76,2.16,17.79,3.23,26.55,5.39.32.22-.09,2.79,1.07,3.74.79.65,4,.83,5.22,1.12.26.06.8.08.73.45-2.53.41-4.1-1.52-5.47,1.27-.52,1.07-.83,2.21-1.15,3.35,0,.31,2.03.21,2.12.93-1.06-.12-2.04.32-2.79,1.05-3.72,4.94-7.27,10.3-11.58,14.72-3.23,3.31-8.59,4.44-13.07,5.57-8,2.01-16.64,2.61-23.72,7.22-.44-.27.09-.59.26-.8,5.11-6.21,22.48-6.83,30.75-10.24.39-.16.72.16.58-.59h-15.6c.94-2.93.83-5.95.79-8.99-.32-.34-3.83,1.62-4.36,1.57-.68-.06-.15-3.79-1.17-4.35,0-.66,4.43-1.65,5.01-2.12,1.31-1.07-.83-1.2-1.64-1.11-4.06.44-8.41,2.91-12.63,3.1,1.18-1.04,3.15-1.25,4.59-1.88,1.35-.59,2.55-1.44,3.83-2.12-2.49-11.48-19.51-8.65-20.33,2.28-.15,2.04.14,5.17.86,7.09,1.06,2.83,3.96,4.32,4.62,7.01.12.47.5,2.1.31,2.4-.21.33-3.1.59-3.26,1.57-.27,1.63.39,3.25,2.24,2.69l.26.26c-1.48.82-2.15,3.22-2.51,4.76-1.45,6.13-.01,10.76,2.05,16.46,2.29,6.31,5.58,12.24,8.13,18.44.62.13.42-.08.59-.34,1.51-2.35,2.39-4.84,3.83-7.26l2.18-5.08c-.29,2.07-.87,4.12-1.39,6.14-.77,2.94-2.86,8.3-3.08,10.95-.41,5.05,4.35,6.89,8.56,6.98s8.24-1.01,12.04-2.12c-.71.82-2.14,1.29-3.18,1.71-4.96,2.05-10.23,3-15.6,3.17-.71,1.19-1.39,2.39-1.85,3.7-.39,1.11-1.05,3.4-1.05,4.5v8.06c.41.09.62-.09.94-.25,1.92-.91,4.01-2.84,6.01-3.77.25-.12.82-.42.98-.08-2.84,2.29-6.28,6.08-7.71,9.47-2.11,5-3.64,21.75-7.53,24.47-1.24.86-3.79,1.56-5.29,2.37-7.45,4-11.51,10.94-18.09,15.75-2.33,1.7-4.97,3.26-7.46,4.7-1.68.98-4.97,2.02-6,3.52-1.31,1.89-.05,4.49-.27,6.32-.1.87-1.18,2.29-1.52,3.26-1.82,5.19,1.03,9.35,6.42,9.85,6.42.6,3.06-3.67,3.84-6.97.12-.52,1.91-3.61,2.23-3.87.56-.45,1.87-.7,2.61-1.1,9.41-5.12,18.31-11.31,27.93-16.09.54-.79-1.89-2.01-2.38-2.49-2.23-2.19-4.59-5.54-5.28-8.6l3.18,4.62c1.85,1.67,4.74,5.69,7.52,5.16,2.39-.46-.29-1.94-.78-2.38-2.62-2.3-5.38-5.24-6.21-8.72,1.14,1.39,2,2.98,3.18,4.36.97,1.13,5.13,5.12,6.47,5.06.54-.02,1.62-.98,1.43-1.58-.09-.28-3.76-3.05-4.46-3.82-.62-.68-4.18-5.32-3.72-5.87.68-.16.46.2.68.5,1.94,2.63,4.9,6.49,7.81,8.06,1.43.77,1.91-.3,3.04-1.28,1.22-1.06,8.07-8.08,8.26-8.81.32-1.25-1.84-2.18-2.86-2.07l-8.72,7.03c-.12-.5.28-.63.53-.93.48-.57,7.04-6.43,6.61-7-1.12-.29-2.21-.89-3.38-.34-1.18,1.25-2.46,2.53-3.76,3.64-.26.22-1.93,1.64-2.12,1.45-.1-.47.25-.64.52-.93.6-.65,4.95-4.24,4.5-4.88-2.07-.74-4.24.13-6.34-.13,1.29-.88,3.41-1.47,4.96-1.65,1.28-.15,5.09.19,5.74-.34.61-.5,3.4-5.41,4.05-6.52,3.09-5.23,6.28-11.15,8.64-16.74,1.23-2.92,2.29-5.96,3.18-8.99.8.02-1.59,10.46-1.61,11.38,7.44,3.49,15.68,7.31,21.96,12.69.62.53,2.18,1.76,2.25,2.52.08.84-3.23,6.8-3.82,8.32-4.14,10.67-1.77,20.23-7.75,30.85-1.57,2.79-4.17,5.76-5.09,8.93-.82,2.79,4.37,4.56,6.53,4.87,1.01.14,2.01-.11,3.02.16.84.22,2.19,1.4,3.16,1.87,3.31,1.59,8.93,2.04,12.58,1.72,1.49-.13,3.1-.62,2.72-2.46-.39-1.87-3.91-2.43-5.48-3.26s-5.49-4.39-6.36-5.87c-1.26-2.14,1.57-.14,2.07-1.54,4.35-10.13,8.71-20.36,12.86-30.5.27-.65,1.22-3.26,1.42-3.55.38-.53,1.29.49,1.55-.88.37-1.93-.02-1.18-1.31-1.46-2.21-.48-4.98-1.36-7.12-2.14-.32-.12-1.21-.37-1.28-.7,3.07.02,6.67,1.9,9.66,1.85,1.34-.02,1.98-1.15,1.97-2.37-2.95-.62-6.22-1.36-9.03-2.48-.29-.11-1-.35-1.01-.7,1.94-.09,9.49,2.65,10.8,1.81.1-.07.63-1.97.31-2.21-.43-.33-4.7-1.07-5.77-1.39l-4.03-1.65c3.48.29,6.78,1.85,10.31,1.59l1.55-15.03c-2.52-1.4-2.74,2.96-3.06,4.67-.47,2.54-.65,5.18-1.14,7.72l-.27-2.52c.13-2.65.83-5.84.78-8.43-.02-1.13-.57-1.13-1.45-.7-2.18,1.08-2.33,7.51-2.84,9.85-.07.31-.03,1.05-.44,1.01-.17-2.9.3-5.82.52-8.72-.96-.19-2.48,3.14-3.17,2.64-1.15-2.52-2.98-5.07-4.65-7.38-5.45-7.54-11.64-13.55-18.45-19.75-3.06-2.79-6.43-5.28-9.39-8.19-.99-4.1-1.87-8.23-3.07-12.27s-2.88-7.87-4.1-11.9c-.63-.08-.42,0-.56.37-.38,1.06-.51,2.44-.91,3.59-1.41,4.12-3.37,8.39-5.94,11.91.45-1.64,1.21-3.13,1.72-4.76,1.77-5.68,2.65-11.79,3.04-17.71l-14.01,4.76c-.71-.95,2.04-1.4,2.48-1.61,7.44-3.66,15.07-7.53,22.37-11.47,7.95-4.28,9.64-5.94,14.49-13.54.56-.88,1.02-2.52,1.9-2.73,1.17-3.03,2.34-5.99,3.56-8.99.27-.66.37-1.92.66-2.44.23-.41.72-.26,1-.52.39-.38,3.16-6.21,3.55-7.16.19-.46.61-2.42.77-2.53.23-.15,3.16.41,3.35.55.21.15.55,2.63.8,3.3.36.98,2.11,2.97,2.14,3.16.04.21-1.84,3.12-1.83,3.94,0,.63,1.3.66.8,1.17-.07.07-.4-.21-.62-.18-.64.08-3.3,3.3-4.13,4.02-2.7,2.33-6.6,4.86-10.05,5.68ZM250.2,161.93c1.58-1.34,3.27-2.76,4.19-4.67.63-1.3,1.04-2.29-.18-3.35l-4.89,8.33.39.39c.23-.12.29-.53.49-.7ZM285.27,255.04v13.75c0,.22.52,1.92.66,2.25.86,2,2.72,3.08,4.83,3.37,2.49.34,10.35.34,12.49-.59,2.24-.98,3.25-3.2,3.45-5.54.47-5.48.48-15.96,0-21.43-.31-3.59-2.17-6.35-5.96-6.73-18.73-1.89-45.96,5.91-51.08-20.56-1.76-9.08-1.3-26.46-.61-35.89.03-.35.15-.6.27-.92-2.96.67-5.89,1.33-8.89,1.81-1.47.24-3.22.14-4.6.42-2,.41-4.89,2.92-6.96,3.61l-.44.88c.24,11.21-.42,22.5.36,33.66,10.87,9.65,22.76,18.92,30.07,31.79,1.43-.64,2.37-1.81,3.9-2.57,2.48-1.22,4.72-1.8,7.47-1.01,2.8.8,1.98,3.2,3.08,3.53l11.38-.16c.22-.08.56.2.6.35ZM228.43,262.31v37.01h-27.89c-.38,0-5.88,2.91-6.92,3.13l-27.57,16.06c-1.72,1.33-1.41,3.49-1.07,5.4,17.01-2.3,34.5-3.36,51.7-2.92.63.02,1.2.27,1.83.29,2.78.09,5.56.03,8.34.25-.86-3.47,1.79-7.19,3.49-10.13.6-1.03,1.56-1.92,2.12-2.91,5.67-10,3.24-20.57,7.49-30.85.42-1.02,3.04-5.52,3.03-5.96s-.38-.65-.66-.91c-1.11-1.05-3.71-2.78-5.07-3.65-2.79-1.8-5.84-3.33-8.81-4.81Z"/>
      <path class="cls-2" d="M73.76,157.61c.35-.35.47-.25.9-.28,21.9.85,44.58-1.07,66.4,0,17.26.85,28.95,9.03,29.99,27.11l.02,88.05c-.95,18.47-13.62,26.02-30.8,26.83h-66.77c.39-22.06.03-43.86,0-65.84.46-2,.29-4.39.27-6.48,0-.45.17-1.18-.27-1.45,0-.61,0-1.23,0-1.85l.26-66.1ZM129.42,180.88h-19.7v94.65h19.17c.35,0,2.38-.66,2.85-.85,2.06-.85,3.05-2.89,3.11-5.09v-83.03c-.41-3.27-2.08-5.25-5.43-5.68Z"/>
      <path class="cls-3" d="M223.41,49.74c1.05,1.7,1.2,3.97,1.05,5.94-1.32,18.21-25.98,44.71-44.81,44.67l-4.36-.38c-16.24-30.67,15.92-64.48,48.12-50.23Z"/>
      <path class="cls-2" d="M95.44,149.15c-.77-.72,6.42-14.89,7.36-16.57,13.56-24.27,36.31-42.35,61.78-52.96.26.2.3.21.29.54-.1,4.49-.22,7.95.76,12.42.41,1.85,1.27,3.77,1.61,5.56-3.1,1.22-6.26,2.33-9.32,3.64-22.12,9.52-41.36,24.94-52.76,46.4-.16.3-.22.63-.21.97h-9.52Z"/>
      <path class="cls-3" d="M228.43,52.65c1.87,1.27,2.82,1.88,4.49,3.44,1.15,4.19.48,8.81-.66,12.95-.73,2.63-1.93,5.08-2.77,7.67.99-1.15,1.8-2.9,2.42-4.32,2.03-4.57,3.43-9.68,2.6-14.72,1.78,1.88,2.88,3.03,4.23,5.29-.58.85.03,1.97,0,3.03-.43,19.72-25.83,46.31-45.15,48.99-1.17.16-2.47-.2-3.5.33-.63-.31-2.18-.98-2.12-1.59.89.12,1.58.2,1.32-.79h-2.65c-.89-.51-1.86-.79-2.38-1.85,6.31,1.9,18.35-4.96,23.44-8.68.33-.24.74-.27.61-.84l-7.57,4.19c-5.68,2.53-11.7,5.13-18.07,4.01-1.96-1.87-2.73-3.02-4.23-5.02,5.23,1.32,11.15-.77,15.91-2.99,13.96-6.52,27.97-21.21,32.81-35.93,1.39-4.23,2.25-8.75,1.25-13.16ZM209.92,100.51c-.45-.21-.97.63-1.32.93.31,0,1.5-.84,1.32-.93Z"/>
      <path class="cls-2" d="M166.5,70.83c-36.94,13.17-69.5,40.63-82.23,78.51-2.37,1.37-.44-3.65-.12-4.74,7.22-24.28,22.28-46.06,42.1-61.8,14.12-11.22,30.2-19.79,47.06-26.18-2.92,4.41-5.23,9.14-6.81,14.21Z"/>
      <path class="cls-3" d="M241.65,68.51c12.11,29.03-13.51,58.88-43.68,50.16-.67-.19-1.68-.32-2.06-.98,2.27.09,5.74-.98,7.91-1.74,15.31-5.34,32.01-23.08,36.43-38.66.81-2.86.91-5.87,1.4-8.78Z"/>
      <path class="cls-2" d="M170.75,105.3c.77,1.42,1.69,2.8,2.69,4.06.95,1.19,2.7,2.64,3.43,3.71.15.22.37.26.26.66-22.8,3.6-45.22,15.92-58.03,35.43-2.33,1.23-.46-1.8.09-2.82,1.33-2.48,3.32-5.42,4.96-7.73,11.1-15.69,28.38-27.41,46.6-33.3Z"/>
      <path class="cls-2" d="M176.34,28.06c.12.46-.19.53-.39.79-.81,1.07-5.4,5.7-5.42,6.47l4.49,8.07-8.56-3.38c-.62.12-4.52,5.12-5.3,5.93-.16.17-.98,1.16-1.21.89-.13-.15.48-3.19.53-3.83.12-1.77,0-3.59.21-5.36-2.19-1.06-4.43-2.04-6.68-2.96-.55-.23-2.93-.62-1.62-1.08,1.14-.41,8.6-1.74,8.85-2.12l1.09-9.48,5.14,8.13,8.87-2.05Z"/>
      <circle class="cls-3" cx="208.11" cy="83.3" r="37.04"/>
      <path class="cls-3" d="M226.84,51.59c1.48,3.76.65,8.1-.4,11.9-4.58,16.64-22.89,35-39.59,39.46-3.13.84-6.67,1.66-9.72.2-.43-.63-.7-1.25-1.06-1.85,5.33,1.52,11.05-.26,15.96-2.42,13.86-6.08,28.95-22.16,32.88-36.92,1.01-3.8,1.56-7.61.34-11.43.67.36,1.08.75,1.59,1.06Z"/>
      <path class="cls-2" d="M126.64,42.6c1.06.85,4.09,6.29,4.94,6.58,1.19.41,6.16-2.14,7.76-2.21l-4.44,6.65c-.09.89,3.95,5.46,4.44,6.7l-7.74-2.07-.72.63-4.23,5.94v-8.33c-2.15-1.25-4.82-1.51-7.14-2.39-.3-.11-.68-.01-.53-.51.11-.39,6.74-2.02,7.67-2.51v-8.46Z"/>
      <path class="cls-2" d="M289.5,50.67c.21.71,6.1,2.31,7.25,2.8.27.12.64.08.68.5-2.66.69-5.46,1.36-7.93,2.51v8.06l-4.8-6.58-7.9,2.22c.05-.21.35-.06.51-.34,1.29-2.13,2.71-4.13,3.97-6.27l-4.48-6.74,7.9,2.62c1.42-2.31,2.96-4.57,4.79-6.59.37,2-.49,6.08,0,7.8Z"/>
      <path class="cls-2" d="M225.26,50.53c1.22,3.81.67,7.63-.34,11.43-3.93,14.76-19.01,30.84-32.88,36.92-4.91,2.15-10.63,3.94-15.96,2.42-.28-.47-.48-.73-.79-1.32l4.36.38c18.82.04,43.49-26.46,44.81-44.67.14-1.97,0-4.24-1.05-5.94.68.3,1.04.35,1.85.79Z"/>
      <path class="cls-2" d="M228.43,52.65c1,4.41.14,8.93-1.25,13.16-4.84,14.72-18.85,29.41-32.81,35.93-4.76,2.22-10.68,4.31-15.91,2.99-.37-.5-.82-.84-1.32-1.59,3.04,1.46,6.59.64,9.72-.2,16.7-4.47,35.01-22.82,39.59-39.46,1.04-3.8,1.88-8.14.4-11.9.65.4,1,.66,1.59,1.06Z"/>
      <path class="cls-3" d="M240.33,65.34c.02,2.5.07,4.97-.34,7.46-1.94,11.71-12.2,25.42-21.28,32.72-7.04,5.66-16.41,11.33-25.7,11.12-.16-.09-.7.23-.53-.53,3.2.12,8.52-1.86,11.5-3.17,15.62-6.88,31.86-25.11,35.17-42.03.35-1.8.85-4.02.65-5.83.27-.02.37.06.53.26Z"/>
      <path class="cls-2" d="M241.65,68.51c-.49,2.91-.59,5.92-1.4,8.78-4.42,15.58-21.12,33.32-36.43,38.66-2.17.76-5.65,1.82-7.91,1.74-1.4-.05-1.8-.39-2.91-1.06,9.29.21,18.66-5.46,25.7-11.12,9.08-7.3,19.34-21,21.28-32.72.41-2.48.36-4.96.34-7.46.47.61.97,2.34,1.32,3.17Z"/>
      <path class="cls-2" d="M239.8,65.08c.2,1.81-.3,4.02-.65,5.83-3.31,16.92-19.55,35.15-35.17,42.03-2.98,1.31-8.3,3.29-11.5,3.17-1.29-.05-1.4-.32-2.38-.79,1.04-.53,2.33-.17,3.5-.33,19.32-2.68,44.72-29.27,45.15-48.99.02-1.06-.58-2.18,0-3.03.5.83.91.73,1.06,2.12Z"/>
      <path class="cls-2" d="M182.69,109.76c6.37,1.13,12.39-1.48,18.07-4.01l7.57-4.19c.12.57-.29.6-.61.84-5.09,3.72-17.13,10.58-23.44,8.68-1.06-.32-.96-.73-1.59-1.32Z"/>
      <path class="cls-2" d="M234.51,57.67c.83,5.04-.57,10.15-2.6,14.72-.63,1.41-1.44,3.17-2.42,4.32.84-2.58,2.05-5.03,2.77-7.67,1.14-4.14,1.81-8.76.66-12.95.61.57,1.02.99,1.59,1.59Z"/>
      <path class="cls-3" d="M73.5,223.71c-.02-21.82.03-43.64-.01-65.46-.04-.35.07-.43.28-.63l-.26,66.1Z"/>
      <path class="cls-3" d="M73.5,233.49c0-2.64,0-5.29,0-7.93.44.27.26,1,.27,1.45.02,2.09.2,4.48-.27,6.48Z"/>
      <path class="cls-2" d="M254.07,21.98c.14,3.15.36,6.36.85,9.46l9.19,2.18c-.03.32-.36.45-.61.58-1.18.63-7.32,2.58-7.72,3.38-.4,3.17.2,6.36.4,9.52l-6.26-7.11-8.8,3.28c.55-1.63,4.53-6.63,4.47-7.94-.06-1.22-5.47-5.69-5.8-7.13-.16-.69.22-.25.46-.19,2.86.66,5.69,1.52,8.62,1.88.64-.2,3.93-6.49,4.61-7.56.17-.26-.03-.47.59-.34Z"/>
      <path class="cls-2" d="M222.08,21.98c-.92,1.24-7.91,5.46-8.16,6.27-.43,1.41,3.32,9.78,2.87,10.39l-8.64-6.3-8.68,6.3,2.99-10.14-8.41-6.51h10.44l3.83-10.31,3.31,10.31h10.44Z"/>
      <path class="cls-2" d="M325.46,413.8l-4.76.79-.15-30.42,5.96-1.04,4.5,16.12,4.03-17.39,6.02-1.12.28,30.02-.19.4-4.59.78-.27-19.56-3.1,13.16c-.25.87-4.06,1.36-4.33.97l-3.41-12.54v19.83Z"/>
      <path class="cls-2" d="M126.64,388.95c.92.03,1.85-.05,2.77,0,2.31.14,8.8.72,10.45,1.97.67.51,1.43,1.46,1.71,2.26.69,1.96.62,10.15.06,12.22-.46,1.7-1.34,2.28-2.86,3l4.25,12.27c-.22.19-5.5-.36-5.75-.59l-3.81-11.4c-.21-.56-.76-.46-1.28-.44v11.63c-1.83-.33-3.7-.58-5.55-.53v-30.4ZM132.19,403.49c1.08-.21,3.21.88,3.95-.15.43-.62.45-7.48.09-8.25-.43-.91-3-.67-4.04-.86v9.25Z"/>
      <path class="cls-2" d="M56.58,378.11c3.41.72,7.19,1.06,10.52,2.04,2.33.68,3.73,1.6,4.43,4.03.96,3.37.69,17.47.4,21.56-.17,2.42-.77,4.91-3.65,5.08-1.79.1-6.57-.94-8.58-1.33-1.01-.2-2.32-.3-3.12-.85v-30.54ZM62.13,383.92v21.15c2.63.15,4.26,1.99,4.51-1.71.31-4.55.13-11.37-.1-16.02-.18-3.67-1.24-2.76-4.4-3.42Z"/>
      <path class="cls-2" d="M286.09,418.8l-.28-30.11c2.74-.1,5.63-.9,8.33-1.06,5.17-.31,6.85.54,7.26,5.95.37,4.79.3,12.1.01,16.93-.2,3.34-.7,6.01-4.29,7.08-2.12.63-7.01,1.09-9.34,1.24-.56.03-1.14.04-1.69-.02ZM291.35,413.53c1.39.05,4.05.24,4.44-1.51-.29-5.67.58-12.08.07-17.67-.27-3.01-2.35-1.78-4.51-1.71v20.89Z"/>
      <path class="cls-2" d="M177.67,406.4c.66-.69,1.09-2.01,1.45-2.91.56-1.41,3.62-10.42,4.11-10.73.28-.24.56.16.66.16h4.89c-1.36,5.01-3.88,9.64-5.27,14.65l5.21,14.62.06.86h-5.16c-.16,0-.69-.35-.74-.6l-5.21-14.73v15.07c-.28.1-.58-.26-.66-.26h-4.63v-30.14h4.89s.4.37.4.4v13.62Z"/>
      <path class="cls-2" d="M240.83,392.15l6.08,29.69c-.11.31-.34.37-.63.42-1.36.24-3.4-.09-4.89.26l-.8-5.81-6.08.26-.81,5.8-5.54.28,5.55-30.67c2.38.02,4.75.06,7.11-.23ZM239.53,411.95l-2.38-12.69-1.84,12.56c.19.26.21.3.53.29,1.17-.03,2.47-.31,3.68-.16Z"/>
      <path class="cls-2" d="M98.62,389.74v4.76c-.82.28-4.12-.85-5.3-.65-.33-.2.05-1.65-.01-2.36-.24-2.69-1.31-2.32-3.68-2.28v7.01c0,.8,6.31.85,7.98,3.39,1.3,1.97,1.24,7.18,1.17,9.66-.16,6.18-2.29,6.39-7.89,5.51-1.26-.2-3.71-.67-4.69-1.39-.6-.44-2.13-2.8-2.13-3.42v-5.68l5.28.8c.65,2.51-.9,4.8,2.6,4.95,1.22.05,1.27-.58,1.37-1.66.15-1.59.3-6.2-1.51-6.68-2.98-.79-6.02.04-7.34-3.77-.63-1.82-.63-8.35-.4-10.44.36-3.39,2.81-3.75,5.68-3.57,4.47.28,8.04.96,8.86,5.81Z"/>
      <path class="cls-2" d="M283.69,419.35l-5.26.24-1.12-5.49c-.22-.14-4.59.13-5.12.23-.36.07-.47.08-.61.45-.55,1.47-.47,4.06-.97,5.66l-5.16.51,5.27-30.82,6.74-.61.28.23,5.95,29.62ZM276.55,409.3l-2.38-12.42-1.85,12.69,4.23-.26Z"/>
      <path class="cls-2" d="M169.21,418.16c-.35,2.59-2.08,3.96-4.63,4.1-1.29.07-4.38-.18-5.69-.38-2.18-.34-4.04-1.77-4.42-4.04-.65-3.93-.87-19.26,0-22.87.37-1.53,1.64-3.12,3.26-3.35,2.29-.33,8.02-.13,9.81,1.38.36.3,1.67,2.58,1.67,2.96v6.74l-5.55-.26v-5.16c0-.79-3.88-1.64-3.9.05.28,5.85-.6,12.45-.08,18.2.06.62.06,1.37.73,1.65.75.31,3.25.45,3.25-.6v-4.89h4.89c.09,0,.4.35.66.26-.19,1.95.26,4.33,0,6.21Z"/>
      <path class="cls-2" d="M254.34,413.8c.03,1.11-.43,2.9.93,3.16,4.34.85,2.74-3.36,3.07-6.03.22-.35,4.7-.5,5.52-.57v6.21c0,1.46-1.46,3.71-2.82,4.32-1.45.65-7.01,1.04-8.62.77-2.22-.38-3.3-2.24-3.63-4.3.5-6.77-.67-14.49,0-21.15.21-2.08,1.37-3.86,3.43-4.51,1.36-.43,6.36-.83,7.74-.59,2.41.41,3.61,2.6,3.86,4.86.1.92.22,4.47.04,5.2-.04.16-.58.45-.67.45h-4.49c-.08,0-.2.33-.4.26v-4.89c0-1.12-3.26-1.64-3.97.13-.14.35-.24.37-.28.89-.38,4.23-.04,9.93.01,14.31,0,.45-.17,1.18.27,1.45Z"/>
      <path class="cls-2" d="M123.73,398.99l-5.55-.53c-.24-.23.33-4.79-.13-5.56-.43-.71-3.84-1.19-3.84-.13v19.56c0,.08.91,1.17.98,1.19.55.15,2.99.06,2.99-.67v-5.42c.98.38,5.24.13,5.52.96.19.58.11,5.44-.03,6.25-.57,3.34-3.27,3.79-6.15,3.63-3.9-.21-8.19-1.03-8.61-5.67-.62-6.96.28-15.21.26-22.23,1-3.26,3.81-3.22,6.72-2.99,2.1.16,5.24.67,6.58,2.41.29.38,1.25,2.4,1.25,2.71v6.48Z"/>
      <path class="cls-2" d="M317.79,389.48l-7.67,1.06v7.4l6.61-.79v4.76l-6.61,1.06v8.2c2.76-.32,5.49-.68,8.2-1.32v5.02l-13.75,1.85v-30.4l13.08-1.85c.63.38.14.56.14.66v4.36Z"/>
      <path class="cls-2" d="M196.44,397.94v7.4h6.61c.02,1.01-.03,2.03,0,3.04.01.34.55,1.72-.13,1.72h-6.74c.64,2.71.04,5.47,0,8.2h8.46v5.02l-13.48-.26v-30.14h12.82s.4.37.4.4v4.23s-.37.4-.4.4h-7.53Z"/>
      <path class="cls-2" d="M349.25,400.45l-6.33-19.8c.16-.51,4.93-1.34,5.41-.7l3.24,12.1.59.34,2.78-14.01c.38-.53,5.43-1.59,5.42-1.19l-5.48,20.69c-.88,3.62.35,7.28-.35,10.89l-5.28.81v-9.12Z"/>
      <path class="cls-2" d="M220.5,392.91v4.63c0,.74-4.76-.42-4.76.53v25.25h-5.29v-25.38h-4.76v-4.63s.37-.4.4-.4h14.41Z"/>
      <path class="cls-2" d="M150.7,390.8v30.4l-5.29-.26c-.08-8.06.11-16.14,0-24.21-.01-1.04-.71-6.02.17-6.22s3.85.7,5.11.28Z"/>
      <path class="cls-2" d="M80.64,413.01l-5.29-.79v-30.4c1.71.08,3.81.23,5.29.93v30.27Z"/>
      <path class="cls-3" d="M254.34,413.8c-.44-.27-.26-1-.27-1.45-.05-4.38-.4-10.08-.01-14.31.05-.53.14-.54.28-.89.11,5.54-.15,11.12,0,16.66Z"/>
      <path class="cls-3" d="M98.62,394.5v-4.76c.22,1.3.45,2.75.28,4.11-.04.29.11.51-.28.65Z"/>
      <path class="cls-2" d="M204.9,349.55l2.84-9.19.59-.33,2.94,9.49,10.55.29-1.79,1.57c-.95.72-6.21,4.05-6.36,4.69l2.73,9.6c-1.69-.44-7.11-5.54-8.19-5.54s-8.18,5.99-8.59,5.53l2.88-9.61-8.17-6.52h10.58Z"/>
      <path class="cls-2" d="M237.29,351.93c.96-.27,2.01-5.79,2.65-6.88.45-.06.52.34.67.65.82,1.7,1.29,4.08,1.89,5.9.04.06.56.33.6.33h6.74l-5.83,4.38c.83,2.29,1.63,4.6,2.13,6.98-.38.39-5.28-3.74-5.99-3.93l-5.77,3.93c.03-2.38,1.39-4.59,1.72-6.95-.05-.36-5.23-3.39-5.56-4.42,1.75-.32,5.23.43,6.74,0Z"/>
      <path class="cls-2" d="M173.7,351.93c.17-.88,1.91-6.76,2.25-6.88.54-.18.36.31.46.58.78,2.04,1.08,4.45,2.18,6.29h7.01c-.63,1.07-5.28,3.64-5.51,4.42-.35,1.18,2.2,6.46,1.81,6.95l-5.72-3.91-5.91,3.65,1.86-6.7c-1.76-1.57-4-2.61-5.56-4.41h7.14Z"/>
      <path class="cls-5" d="M187.98,180.61c-1.85.56-2.51-1.05-2.24-2.69.16-.99,3.05-1.25,3.26-1.57.19-.3-.19-1.93-.31-2.4-.66-2.69-3.56-4.19-4.62-7.01-.72-1.92-1.02-5.05-.86-7.09.83-10.93,17.84-13.76,20.33-2.28-1.29.69-2.49,1.54-3.83,2.12-1.44.63-3.41.85-4.59,1.88,4.23-.19,8.57-2.65,12.63-3.1.81-.09,2.95.04,1.64,1.11-.57.47-5,1.46-5.01,2.12,1.02.56.5,4.3,1.17,4.35.53.04,4.04-1.91,4.36-1.57.04,3.04.15,6.06-.79,8.99h15.6c.14.76-.19.43-.58.6-8.27,3.41-25.64,4.04-30.75,10.24-.17.21-.7.53-.26.8,7.08-4.6,15.72-5.2,23.72-7.22,4.48-1.13,9.84-2.26,13.07-5.57,4.31-4.42,7.87-9.78,11.58-14.72.75-.73,1.73-1.17,2.79-1.05-.09-.73-2.13-.62-2.12-.93.32-1.14.62-2.29,1.15-3.35,1.37-2.79,2.94-.86,5.47-1.27.06-.37-.47-.39-.73-.45-1.22-.3-4.43-.47-5.22-1.12-1.16-.95-.75-3.53-1.07-3.74-8.76-2.16-17.79-3.22-26.55-5.39-5.68-1.4-8.59-2.56-13.42-5.68-1.62-1.05-5.09-2.99-6.28-4.24-.55-.58-.9-2.21-.24-2.4.76-.21,7.1,2.47,8.43,2.93,12.89,4.47,26.11,8.49,39.51,11.08,1.23-4.93,4.81-4.76,8.95-3.49,1.88.57,4.44,1.53,4.56,3.78,1.24-.87,1.08-2.84,3.01-2.64l8.87,4.11c1.21,1.11.8,3.54,1.18,4.1.56.8,3.33-.43,3.34,2.23.02,3.26-2.42,1.63-4.53,1.56-1.06,3.02-2.34,6.94-4.27,9.5-3.08,4.09-5.63,8.6-9.2,12.48-1.95,2.12-4.29,4.61-6.97,5.72-3.24,1.35-6.83,1.34-10.22,2.07-.25-.31,1.99-3.56,2.3-4.17,1.26-2.51,1.99-5.15,2.98-7.72,3.45-.82,7.35-3.35,10.05-5.68.83-.72,3.49-3.94,4.13-4.02.23-.03.56.25.62.18.5-.51-.79-.54-.8-1.17,0-.82,1.87-3.73,1.83-3.94-.03-.19-1.78-2.18-2.14-3.16-.25-.67-.59-3.15-.8-3.3-.19-.13-3.12-.7-3.35-.55-.17.11-.59,2.07-.77,2.53-.39.95-3.17,6.78-3.55,7.16-.27.27-.77.11-1,.52-.29.53-.39,1.78-.66,2.44-1.23,3-2.4,5.97-3.56,8.99-.88.21-1.34,1.85-1.9,2.73-4.84,7.6-6.53,9.25-14.49,13.54-7.31,3.94-14.93,7.81-22.37,11.47-.44.22-3.2.67-2.48,1.61l14.01-4.76c-.39,5.92-1.27,12.03-3.04,17.71-.51,1.63-1.26,3.12-1.72,4.76,2.56-3.52,4.53-7.78,5.94-11.91.39-1.15.53-2.53.91-3.59.13-.38-.08-.44.56-.37,1.22,4.03,2.9,7.85,4.1,11.9s2.09,8.17,3.07,12.27c2.95,2.91,6.32,5.4,9.39,8.19,6.81,6.2,13,12.21,18.45,19.75,1.67,2.31,3.5,4.86,4.65,7.38.69.5,2.2-2.84,3.17-2.64-.22,2.9-.7,5.83-.52,8.72.41.04.37-.7.44-1.01.51-2.34.66-8.77,2.84-9.85.88-.44,1.43-.43,1.45.7.05,2.59-.65,5.78-.78,8.43l.27,2.52c.49-2.54.66-5.18,1.14-7.72.32-1.71.54-6.06,3.06-4.67l-1.55,15.03c-3.53.26-6.83-1.29-10.31-1.59l4.03,1.65c1.07.32,5.33,1.06,5.77,1.39.32.24-.21,2.14-.31,2.21-1.31.84-8.86-1.9-10.8-1.81,0,.36.73.59,1.01.7,2.81,1.11,6.07,1.85,9.03,2.48,0,1.22-.62,2.35-1.97,2.37-2.98.05-6.59-1.84-9.66-1.85.07.33.96.58,1.28.7,2.13.78,4.91,1.66,7.12,2.14,1.29.28,1.68-.47,1.31,1.46-.26,1.36-1.17.35-1.55.88-.21.29-1.16,2.9-1.42,3.55-4.15,10.13-8.51,20.37-12.86,30.5-.5,1.4-3.32-.6-2.07,1.54.87,1.48,4.74,5.01,6.36,5.87s5.09,1.39,5.48,3.26c.38,1.84-1.23,2.33-2.72,2.46-3.64.32-9.27-.13-12.58-1.72-.97-.47-2.32-1.65-3.16-1.87-1.01-.26-2.01-.01-3.02-.16-2.16-.3-7.34-2.07-6.53-4.87.92-3.17,3.52-6.14,5.09-8.93,5.98-10.62,3.61-20.18,7.75-30.85.59-1.52,3.9-7.48,3.82-8.32-.07-.76-1.63-1.99-2.25-2.52-6.29-5.38-14.52-9.2-21.96-12.69.02-.92,2.41-11.36,1.61-11.38-.88,3.03-1.94,6.07-3.18,8.99-2.36,5.59-5.55,11.51-8.64,16.74-.66,1.11-3.44,6.02-4.05,6.52-.65.54-4.46.2-5.74.34-1.55.18-3.67.76-4.96,1.65,2.1.26,4.27-.6,6.34.13.45.64-3.91,4.24-4.5,4.88-.27.29-.62.46-.52.93.18.19,1.86-1.23,2.12-1.45,1.3-1.11,2.58-2.4,3.76-3.64,1.17-.55,2.26.05,3.38.34.43.58-6.13,6.43-6.61,7-.25.3-.64.43-.53.93l8.72-7.03c1.02-.11,3.18.82,2.86,2.07-.18.73-7.03,7.75-8.26,8.81-1.13.98-1.6,2.05-3.04,1.28-2.91-1.57-5.87-5.43-7.81-8.06-.22-.3,0-.66-.68-.5-.46.55,3.1,5.18,3.72,5.87.7.77,4.37,3.54,4.46,3.82.18.6-.89,1.56-1.43,1.58-1.34.06-5.5-3.93-6.47-5.06-1.18-1.37-2.04-2.97-3.18-4.36.83,3.47,3.6,6.41,6.21,8.72.49.43,3.17,1.92.78,2.38-2.78.53-5.67-3.49-7.52-5.16l-3.18-4.62c.69,3.07,3.04,6.42,5.28,8.6.49.48,2.92,1.7,2.38,2.49-9.62,4.78-18.51,10.97-27.93,16.09-.73.4-2.05.64-2.61,1.1-.32.26-2.11,3.36-2.23,3.87-.78,3.3,2.59,7.57-3.84,6.97-5.38-.5-8.24-4.66-6.42-9.85.34-.97,1.42-2.39,1.52-3.26.22-1.83-1.04-4.43.27-6.32,1.03-1.5,4.32-2.54,6-3.52,2.49-1.45,5.13-3,7.46-4.7,6.58-4.81,10.64-11.75,18.09-15.75,1.51-.81,4.05-1.51,5.29-2.37,3.89-2.71,5.42-19.47,7.53-24.47,1.43-3.39,4.87-7.19,7.71-9.47-.16-.34-.73-.04-.98.08-2,.93-4.09,2.86-6.01,3.77-.32.15-.54.34-.94.25v-8.06c0-1.09.66-3.39,1.05-4.5.46-1.31,1.15-2.51,1.85-3.7,5.36-.17,10.64-1.12,15.6-3.17,1.03-.43,2.47-.89,3.18-1.71-3.8,1.11-8.04,2.21-12.04,2.12-4.21-.09-8.97-1.93-8.56-6.98.22-2.65,2.31-8.01,3.08-10.95.53-2.02,1.1-4.07,1.39-6.14l-2.18,5.08c-1.44,2.42-2.32,4.91-3.83,7.26-.17.26.03.47-.59.34-2.56-6.2-5.84-12.13-8.13-18.44-2.07-5.7-3.5-10.33-2.05-16.46.36-1.53,1.03-3.94,2.51-4.76.13-.07.58.02.79-.13l2.38-1.19c-1.22-.14-2.4.74-3.44,1.05ZM208.86,166.07c-.46.25-3.03.96-3.14,1.09-.13.14-.14,3.03.23,3.29.19.13,2.41-.41,2.92-.41v-3.97ZM208.6,171.1c-.44.09-2.79.44-2.88.55-.11.13.02,1.88-.29,2.35,2.66.26,2.91-.49,3.17-2.91ZM256.46,279.49c-.51.16-1.5-.4-1.73-.01l-9.38,26.98c.4-.07.63-.84.79-1.19,2.36-5.07,4.6-10.79,6.74-16,.46-1.11,3.95-9.42,3.57-9.78ZM249.84,305.67c-.15.42-1.32,2.36-.4,2.38.22-.84.6-1.59.93-2.38,3.45-8.24,6.68-16.58,10.28-24.76.28-.45-1.33-.61-1.4-.59-.32.07-2.17,5.17-2.47,5.98-2.39,6.41-4.69,12.9-6.94,19.37ZM192.87,283.72v.26c.17-.09.17-.18,0-.26ZM198.82,284.52c-.29-.29-.81.24-.53.53s.81-.24.53-.53ZM184,290.07l-21.14,14.27,21.67-12.7-.53-1.57ZM174.59,302.06c1.55-.91,12.13-6.56,12.3-7.4.08-.43-.37-1.26-1.01-1.03-.18.06-.86.54-1.15.72-5.73,3.42-12.97,8.12-18.35,12.03-.05.04-1.01.73-.73.88,3-1.35,5.81-3.12,8.65-4.78.15-.09.2-.36.3-.42ZM170,309.89l20.35-12.28c-.4-.56-.86-.89-1.5-.47-5.84,4.41-12.38,7.88-18.35,12.07-.15.11-.95.29-.5.68ZM162.6,304.35c-.29-.29-.81.24-.53.53s.81-.24.53-.53ZM248.92,308.31v.26c.17-.09.17-.18,0-.26ZM169.73,309.9c-.14-.14-1.51.34-1.05.79.14.14,1.51-.34,1.05-.79Z"/>
      <path class="cls-5" d="M285.27,255.04c-.04-.15-.38-.43-.6-.35l-11.38.16c-1.1-.33-.28-2.72-3.08-3.53-2.75-.79-4.99-.21-7.47,1.01-1.53.75-2.47,1.92-3.9,2.57-7.3-12.87-19.19-22.14-30.07-31.79-.78-11.16-.12-22.45-.36-33.66l.44-.88c2.08-.69,4.97-3.21,6.96-3.61,1.38-.28,3.13-.18,4.6-.42,3-.48,5.94-1.14,8.89-1.81-.13.31-.25.56-.27.92-.69,9.43-1.15,26.82.61,35.89,5.12,26.48,32.35,18.67,51.08,20.56,3.79.38,5.65,3.14,5.96,6.73.48,5.47.47,15.96,0,21.43-.2,2.34-1.2,4.56-3.45,5.54s-10,.93-12.49.59c-2.11-.29-3.96-1.37-4.83-3.37-.14-.33-.66-2.03-.66-2.25v-13.75Z"/>
      <path class="cls-5" d="M228.43,262.31c2.96,1.48,6.01,3.01,8.81,4.81,1.36.88,3.96,2.6,5.07,3.65.28.26.65.47.66.91s-2.61,4.94-3.03,5.96c-4.25,10.28-1.82,20.85-7.49,30.85-.56.99-1.52,1.87-2.12,2.91-1.7,2.94-4.35,6.65-3.49,10.13-2.77-.22-5.56-.16-8.34-.25-.63-.02-1.2-.27-1.83-.29-17.2-.44-34.68.62-51.7,2.92-.34-1.92-.64-4.07,1.07-5.4l27.57-16.06c1.04-.22,6.54-3.13,6.92-3.13h27.89v-37.01Z"/>
      <path class="cls-3" d="M187.98,180.61c1.04-.31,2.21-1.2,3.44-1.05l-2.38,1.19c-.21.15-.66.06-.79.13l-.26-.26Z"/>
      <path class="cls-5" d="M129.42,180.88c3.35.43,5.02,2.41,5.42,5.68v83.03c-.06,2.19-1.04,4.24-3.1,5.09-.47.19-2.5.85-2.85.85h-19.17v-94.65h19.7Z"/>
      <path class="cls-2" d="M209.92,100.51c.18.09-1.01.92-1.32.93.35-.3.87-1.13,1.32-.93Z"/>
      <path class="cls-5" d="M132.19,403.49v-9.25c1.03.19,3.61-.06,4.04.86.36.77.35,7.63-.09,8.25-.73,1.04-2.87-.06-3.95.15Z"/>
      <path class="cls-5" d="M62.13,383.92c3.17.67,4.22-.25,4.4,3.42.23,4.65.41,11.47.1,16.02-.25,3.7-1.88,1.86-4.51,1.71v-21.15Z"/>
      <path class="cls-5" d="M291.35,413.53v-20.89c2.15-.07,4.23-1.3,4.51,1.71.51,5.59-.36,12-.07,17.67-.39,1.75-3.04,1.57-4.44,1.51Z"/>
      <path class="cls-5" d="M239.53,411.95c-1.22-.15-2.52.13-3.68.16-.32,0-.34-.02-.53-.29l1.84-12.56,2.38,12.69Z"/>
      <polygon class="cls-5" points="276.55 409.3 272.32 409.57 274.17 396.88 276.55 409.3"/>
      <path class="cls-2" d="M256.46,279.49c.38.36-3.12,8.67-3.57,9.78-2.13,5.21-4.38,10.93-6.74,16-.16.35-.39,1.12-.79,1.19l9.38-26.98c.22-.39,1.21.18,1.73.01Z"/>
      <path class="cls-2" d="M249.84,305.67c2.24-6.47,4.54-12.96,6.94-19.37.3-.8,2.15-5.9,2.47-5.98.08-.02,1.68.14,1.4.59-3.6,8.18-6.83,16.52-10.28,24.76h-.53Z"/>
      <path class="cls-2" d="M174.59,302.06c-.1.06-.14.33-.3.42-2.84,1.66-5.65,3.42-8.65,4.78-.28-.14.67-.84.73-.88,5.39-3.91,12.62-8.61,18.35-12.03.29-.17.97-.65,1.15-.72.64-.23,1.1.6,1.01,1.03-.16.85-10.74,6.5-12.3,7.4Z"/>
      <polygon class="cls-2" points="184 290.07 184.53 291.64 162.86 304.34 184 290.07"/>
      <path class="cls-2" d="M170,309.89c-.45-.4.34-.58.5-.68,5.98-4.18,12.51-7.66,18.35-12.07.65-.42,1.1-.09,1.5.47l-20.35,12.28Z"/>
      <path class="cls-2" d="M208.86,166.07v3.97c-.51,0-2.73.55-2.92.41-.37-.26-.35-3.15-.23-3.29.11-.13,2.68-.84,3.14-1.09Z"/>
      <path class="cls-2" d="M208.6,171.1c-.26,2.42-.51,3.17-3.17,2.91.31-.47.18-2.22.29-2.35.09-.11,2.45-.47,2.88-.55Z"/>
      <path class="cls-3" d="M250.37,305.67c-.33.79-.71,1.54-.93,2.38-.92-.02.25-1.96.4-2.38h.53Z"/>
      <path class="cls-2" d="M169.73,309.9c.46.45-.91.93-1.05.79-.46-.45.91-.93,1.05-.79Z"/>
      <path class="cls-2" d="M162.6,304.35c.29.29-.24.81-.53.53s.24-.81.53-.53Z"/>
      <path class="cls-2" d="M198.82,284.52c.29.29-.24.81-.53.53s.24-.81.53-.53Z"/>
      <path class="cls-2" d="M192.87,283.72c.17.09.17.18,0,.26v-.26Z"/>
      <path class="cls-3" d="M248.92,308.31c.17.09.17.18,0,.26v-.26Z"/>
      <path class="cls-5" d="M250.2,161.93c-.2.17-.26.58-.49.7l-.39-.39,4.89-8.33c1.22,1.05.81,2.05.18,3.35-.92,1.91-2.61,3.33-4.19,4.67Z"/>
      <path class="cls-4" d="M231.05,54.9h0c-.68,12.05-5.04,23.3-12.89,32.47-5.22,6.1-11.4,11.34-18.33,15.51-4.22,2.54-9.18,4.16-14.08,4.62l-4.74.51"/>
      <path class="cls-4" d="M236.94,60.87l-.05.42c-1.71,13.54-7.83,26.21-17.65,35.69-.12.12-.25.24-.37.36-8.52,8.11-18.28,14-29.86,16.02l-1.9.28"/>
    </g>
  </g>
</svg>